<?xml version="1.0" standalone="no"?>
<!DOCTYPE svg PUBLIC "-//W3C//DTD SVG 20010904//EN"
 "http://www.w3.org/TR/2001/REC-SVG-20010904/DTD/svg10.dtd">
<svg version="1.0" xmlns="http://www.w3.org/2000/svg"
 width="256.000000pt" height="256.000000pt" viewBox="0 0 256.000000 256.000000"
 preserveAspectRatio="xMidYMid meet">
<metadata>
Created by potrace 1.14, written by Peter Selinger 2001-2017
</metadata>
<g transform="translate(0.000000,256.000000) scale(0.100000,-0.100000)"
fill="#000000" stroke="none">
<path d="M1139 2556 c-2 -2 -24 -6 -49 -9 -79 -11 -208 -45 -275 -73 -22 -9
-41 -16 -42 -15 -12 5 -244 -134 -251 -151 -2 -4 -8 -8 -13 -8 -30 0 -215
-194 -288 -300 -59 -87 -114 -195 -146 -285 -9 -27 -20 -57 -23 -65 -8 -23 -8
-22 -17 -65 -13 -67 -15 -78 -23 -120 -17 -93 -7 -361 16 -455 5 -19 9 -38 10
-43 9 -72 97 -275 160 -371 26 -39 49 -75 50 -79 7 -16 88 -103 157 -170 136
-132 378 -268 537 -303 43 -9 63 -14 88 -19 78 -18 150 -23 280 -20 144 3 177
7 255 27 22 5 50 12 63 14 50 9 237 89 297 126 28 18 147 100 163 113 73 58
242 241 242 263 0 6 5 12 10 12 6 0 10 5 10 12 0 6 10 25 23 42 19 27 68 123
98 191 11 26 39 112 45 136 2 11 7 29 10 42 3 12 7 33 10 47 2 14 8 50 13 80
14 79 6 341 -13 425 -26 115 -64 224 -117 330 -28 55 -53 102 -57 105 -4 3
-21 25 -37 50 -104 157 -302 324 -485 412 -121 58 -191 80 -340 108 -81 15
-349 27 -361 16z"/>
</g>
</svg>
